<svg width="32" height="32" viewBox="0 0 32 32" fill="none" xmlns="http://www.w3.org/2000/svg">
<mask id="mask0_7812_4904" style="mask-type:alpha" maskUnits="userSpaceOnUse" x="1" y="1" width="30" height="30">
<rect x="1.23096" y="1.23071" width="29.5385" height="29.5385" fill="#D9D9D9"/>
</mask>
<g mask="url(#mask0_7812_4904)">
<path d="M14.2536 21.2354L22.5282 12.9608L21.2312 11.6638L14.2536 18.6413L10.746 15.1336L9.44894 16.4307L14.2536 21.2354ZM16.0024 27.6922C14.3853 27.6922 12.8653 27.3853 11.4423 26.7716C10.0194 26.1578 8.7816 25.3249 7.72903 24.2728C6.67643 23.2207 5.84313 21.9834 5.22912 20.5611C4.61511 19.1388 4.30811 17.6191 4.30811 16.002C4.30811 14.3848 4.61498 12.8648 5.22872 11.4418C5.84246 10.0189 6.67539 8.78112 7.72749 7.72854C8.77961 6.67595 10.0168 5.84264 11.4392 5.22863C12.8614 4.61462 14.3812 4.30762 15.9983 4.30762C17.6155 4.30762 19.1355 4.61449 20.5584 5.22823C21.9814 5.84198 23.2192 6.6749 24.2717 7.727C25.3243 8.77913 26.1576 10.0163 26.7716 11.4387C27.3857 12.861 27.6927 14.3807 27.6927 15.9978C27.6927 17.615 27.3858 19.135 26.772 20.558C26.1583 21.9809 25.3254 23.2187 24.2733 24.2712C23.2212 25.3238 21.9839 26.1571 20.5616 26.7712C19.1393 27.3852 17.6196 27.6922 16.0024 27.6922ZM16.0004 25.846C18.7491 25.846 21.0773 24.8922 22.985 22.9845C24.8927 21.0768 25.8465 18.7486 25.8465 15.9999C25.8465 13.2512 24.8927 10.923 22.985 9.01528C21.0773 7.10759 18.7491 6.15374 16.0004 6.15374C13.2517 6.15374 10.9235 7.10759 9.01577 9.01528C7.10807 10.923 6.15423 13.2512 6.15423 15.9999C6.15423 18.7486 7.10807 21.0768 9.01577 22.9845C10.9235 24.8922 13.2517 25.846 16.0004 25.846Z" fill="#3A8128"/>
</g>
</svg>
