<svg width="17" height="17" viewBox="0 0 17 17" fill="none" xmlns="http://www.w3.org/2000/svg">
<g clip-path="url(#clip0_7812_5935)">
<path d="M5.33531 2.54098C4.91293 2.54098 4.57312 2.88079 4.57312 3.30316V12.9575C4.57312 13.2243 4.52866 13.4815 4.44292 13.7197H13.9734C14.3958 13.7197 14.7356 13.3799 14.7356 12.9575V3.30316C14.7356 2.88079 14.3958 2.54098 13.9734 2.54098H5.33531ZM2.28656 15.2441C1.0226 15.2441 0 14.2215 0 12.9575V3.55723C0 3.13485 0.339809 2.79504 0.762187 2.79504C1.18457 2.79504 1.52437 3.13485 1.52437 3.55723V12.9575C1.52437 13.3799 1.86418 13.7197 2.28656 13.7197C2.70894 13.7197 3.04875 13.3799 3.04875 12.9575V3.30316C3.04875 2.0392 4.07135 1.0166 5.33531 1.0166H13.9734C15.2374 1.0166 16.26 2.0392 16.26 3.30316V12.9575C16.26 14.2215 15.2374 15.2441 13.9734 15.2441H2.28656ZM5.58938 4.31941C5.58938 3.89704 5.92918 3.55723 6.35156 3.55723H9.40031C9.82269 3.55723 10.1625 3.89704 10.1625 4.31941V6.86004C10.1625 7.28242 9.82269 7.62223 9.40031 7.62223H6.35156C5.92918 7.62223 5.58938 7.28242 5.58938 6.86004V4.31941ZM11.9409 3.55723H12.9572C13.3796 3.55723 13.7194 3.89704 13.7194 4.31941C13.7194 4.74179 13.3796 5.0816 12.9572 5.0816H11.9409C11.5186 5.0816 11.1788 4.74179 11.1788 4.31941C11.1788 3.89704 11.5186 3.55723 11.9409 3.55723ZM11.9409 6.09785H12.9572C13.3796 6.09785 13.7194 6.43766 13.7194 6.86004C13.7194 7.28242 13.3796 7.62223 12.9572 7.62223H11.9409C11.5186 7.62223 11.1788 7.28242 11.1788 6.86004C11.1788 6.43766 11.5186 6.09785 11.9409 6.09785ZM6.35156 8.63848H12.9572C13.3796 8.63848 13.7194 8.97829 13.7194 9.40066C13.7194 9.82304 13.3796 10.1629 12.9572 10.1629H6.35156C5.92918 10.1629 5.58938 9.82304 5.58938 9.40066C5.58938 8.97829 5.92918 8.63848 6.35156 8.63848ZM6.35156 11.1791H12.9572C13.3796 11.1791 13.7194 11.5189 13.7194 11.9413C13.7194 12.3637 13.3796 12.7035 12.9572 12.7035H6.35156C5.92918 12.7035 5.58938 12.3637 5.58938 11.9413C5.58938 11.5189 5.92918 11.1791 6.35156 11.1791Z" fill="black"/>
</g>
<defs>
<clipPath id="clip0_7812_5935">
<rect width="16.26" height="16.26" fill="white"/>
</clipPath>
</defs>
</svg>
