<svg width="68" height="68" viewBox="0 0 68 68" fill="none" xmlns="http://www.w3.org/2000/svg">
<path d="M33.835 0C27.1431 0 20.6014 1.98448 15.0373 5.70248C9.47316 9.42049 5.13644 14.705 2.57555 20.8878C0.0146602 27.0707 -0.655386 33.8741 0.650145 40.4377C1.95568 47.0014 5.17815 53.0304 9.91006 57.7626C14.642 62.4947 20.6708 65.7173 27.2341 67.0229C33.7975 68.3285 40.6006 67.6584 46.7831 65.0974C52.9656 62.5364 58.2499 58.1995 61.9678 52.6351C65.6856 47.0707 67.67 40.5288 67.67 33.8365C67.6605 24.8654 64.0927 16.2645 57.7495 9.92095C51.4063 3.57743 42.8057 0.00947364 33.835 0Z" fill="black" fill-opacity="0.6"/>
<path d="M27.9427 18.934C26.9406 18.3247 25.6813 18.3046 24.6589 18.8737C23.6365 19.4428 23 20.514 23 21.679V45.2463C23 46.4112 23.6365 47.4825 24.6589 48.0516C25.6813 48.6207 26.9406 48.5939 27.9427 47.9913L47.4427 36.2077C48.4109 35.6252 49 34.5874 49 33.4626C49 32.3378 48.4109 31.3068 47.4427 30.7176L27.9427 18.934Z" fill="white"/>
</svg>
